<svg xmlns="http://www.w3.org/2000/svg" viewBox="0 0 5283.37 136.81"><defs><style>.cls-1{fill:lime;stroke:#f2f2f2;stroke-miterlimit:10;stroke-width:2px;}</style></defs><g id="Layer_4" data-name="Layer 4"><path class="cls-1" d="M-1598.18,552.18q0,11.77-9.89,20.19t-26.24,9.53v25.27h-12.11V582.32a110.74,110.74,0,0,1-18-1.88q-10.23-1.8-16-4.52V555.6h3.13a62.72,62.72,0,0,0,14.72,5.56,98.22,98.22,0,0,0,16.53,2.72V544.81l-6.75-1.53a101.89,101.89,0,0,1-11.8-3.41,31.38,31.38,0,0,1-9.29-5.15,22,22,0,0,1-6-7.9,27.73,27.73,0,0,1-2.16-11.59q0-10.38,9.47-17.75t26.23-8.91V472.35h12.11v16.08a116.65,116.65,0,0,1,15,1.81,69.48,69.48,0,0,1,13.54,3.55v20.05h-3.06a51.13,51.13,0,0,0-11.49-4.74,66,66,0,0,0-14-2.36v17.67l5.57,1.12q15.73,3.06,23.14,9.29T-1598.18,552.18Zm-47.12-29.3V506.74a20.34,20.34,0,0,0-8.25,2.33c-2.44,1.32-3.65,3.19-3.65,5.6a6,6,0,0,0,2.36,5.08Q-1652.47,521.57-1645.3,522.88Zm21.85,32a6.43,6.43,0,0,0-3.72-6,23.15,23.15,0,0,0-7.41-2.54V563.6a19.61,19.61,0,0,0,7.86-2.68A6.68,6.68,0,0,0-1623.45,554.9Z" transform="translate(1683.12 -471.35)"/><path class="cls-1" d="M-1350.69,552.18q0,11.77-9.88,20.19t-26.24,9.53v25.27h-12.11V582.32a110.63,110.63,0,0,1-18-1.88q-10.24-1.8-16-4.52V555.6h3.13a62.56,62.56,0,0,0,14.72,5.56,97.89,97.89,0,0,0,16.53,2.72V544.81l-6.75-1.53a101.89,101.89,0,0,1-11.8-3.41,31.26,31.26,0,0,1-9.29-5.15,22,22,0,0,1-6.06-7.9,27.89,27.89,0,0,1-2.15-11.59q0-10.38,9.46-17.75t26.24-8.91V472.35h12.11v16.08a116.65,116.65,0,0,1,15,1.81,69.68,69.68,0,0,1,13.54,3.55v20.05h-3.06a51.32,51.32,0,0,0-11.49-4.74,66,66,0,0,0-14-2.36v17.67l5.57,1.12q15.73,3.06,23.14,9.29T-1350.69,552.18Zm-47.11-29.3V506.74a20.25,20.25,0,0,0-8.25,2.33q-3.66,2-3.66,5.6a6,6,0,0,0,2.37,5.08C-1405.76,521-1402.59,522-1397.8,522.88Zm21.85,32a6.43,6.43,0,0,0-3.72-6,23.2,23.2,0,0,0-7.42-2.54V563.6a19.6,19.6,0,0,0,7.87-2.68A6.68,6.68,0,0,0-1375.95,554.9Z" transform="translate(1683.12 -471.35)"/><path class="cls-1" d="M-1103.19,552.18q0,11.77-9.88,20.19t-26.24,9.53v25.27h-12.11V582.32a110.74,110.74,0,0,1-18-1.88q-10.23-1.8-16-4.52V555.6h3.14a62.39,62.39,0,0,0,14.72,5.56,97.89,97.89,0,0,0,16.53,2.72V544.81l-6.75-1.53a101.32,101.32,0,0,1-11.8-3.41,31.13,31.13,0,0,1-9.29-5.15,22,22,0,0,1-6.06-7.9,27.73,27.73,0,0,1-2.16-11.59q0-10.38,9.47-17.75t26.24-8.91V472.35h12.11v16.08a116.65,116.65,0,0,1,15,1.81,69.35,69.35,0,0,1,13.53,3.55v20.05h-3.06a51,51,0,0,0-11.48-4.74,66.14,66.14,0,0,0-14-2.36v17.67l5.57,1.12q15.72,3.06,23.14,9.29T-1103.19,552.18Zm-47.12-29.3V506.74a20.34,20.34,0,0,0-8.25,2.33q-3.64,2-3.65,5.6a6,6,0,0,0,2.37,5.08Q-1157.49,521.57-1150.31,522.88Zm21.86,32a6.44,6.44,0,0,0-3.73-6,23.07,23.07,0,0,0-7.41-2.54V563.6a19.71,19.71,0,0,0,7.87-2.68A6.7,6.7,0,0,0-1128.45,554.9Z" transform="translate(1683.12 -471.35)"/><path class="cls-1" d="M-855.69,552.18q0,11.77-9.89,20.19t-26.23,9.53v25.27h-12.11V582.32a110.74,110.74,0,0,1-18-1.88q-10.23-1.8-16-4.52V555.6h3.13a62.72,62.72,0,0,0,14.72,5.56,98.22,98.22,0,0,0,16.53,2.72V544.81l-6.75-1.53a101.89,101.89,0,0,1-11.8-3.41,31.38,31.38,0,0,1-9.29-5.15,22,22,0,0,1-6.05-7.9,27.73,27.73,0,0,1-2.16-11.59q0-10.38,9.47-17.75t26.24-8.91V472.35h12.11v16.08a116.73,116.73,0,0,1,15,1.81,69.48,69.48,0,0,1,13.54,3.55v20.05h-3.06a51.24,51.24,0,0,0-11.48-4.74,66.25,66.25,0,0,0-14-2.36v17.67l5.56,1.12q15.74,3.06,23.15,9.29T-855.69,552.18Zm-47.12-29.3V506.74a20.34,20.34,0,0,0-8.25,2.33q-3.65,2-3.65,5.6a6,6,0,0,0,2.36,5.08Q-910,521.57-902.81,522.88Zm21.85,32a6.43,6.43,0,0,0-3.72-6,23.07,23.07,0,0,0-7.41-2.54V563.6a19.61,19.61,0,0,0,7.86-2.68A6.68,6.68,0,0,0-881,554.9Z" transform="translate(1683.12 -471.35)"/><path class="cls-1" d="M-608.2,552.18q0,11.77-9.88,20.19t-26.24,9.53v25.27h-12.11V582.32a110.63,110.63,0,0,1-18-1.88q-10.24-1.8-16-4.52V555.6h3.13a62.56,62.56,0,0,0,14.72,5.56,97.89,97.89,0,0,0,16.53,2.72V544.81l-6.75-1.53a101.89,101.89,0,0,1-11.8-3.41,31.26,31.26,0,0,1-9.29-5.15,22,22,0,0,1-6.06-7.9,27.89,27.89,0,0,1-2.15-11.59q0-10.38,9.46-17.75t26.24-8.91V472.35h12.11v16.08a116.65,116.65,0,0,1,15,1.81,69.68,69.68,0,0,1,13.54,3.55v20.05h-3.06a51.32,51.32,0,0,0-11.49-4.74,66,66,0,0,0-14-2.36v17.67l5.57,1.12q15.74,3.06,23.14,9.29T-608.2,552.18Zm-47.11-29.3V506.74a20.25,20.25,0,0,0-8.25,2.33q-3.66,2-3.66,5.6a6,6,0,0,0,2.37,5.08Q-662.48,521.57-655.31,522.88Zm21.85,32a6.43,6.43,0,0,0-3.72-6,23.2,23.2,0,0,0-7.42-2.54V563.6a19.6,19.6,0,0,0,7.87-2.68A6.68,6.68,0,0,0-633.46,554.9Z" transform="translate(1683.12 -471.35)"/><path class="cls-1" d="M-360.7,552.18q0,11.77-9.88,20.19t-26.24,9.53v25.27h-12.11V582.32a110.74,110.74,0,0,1-18-1.88q-10.23-1.8-16-4.52V555.6h3.14a62.39,62.39,0,0,0,14.72,5.56,97.89,97.89,0,0,0,16.53,2.72V544.81l-6.75-1.53a101.32,101.32,0,0,1-11.8-3.41,31.13,31.13,0,0,1-9.29-5.15,22,22,0,0,1-6.06-7.9,27.73,27.73,0,0,1-2.16-11.59q0-10.38,9.47-17.75t26.24-8.91V472.35h12.11v16.08a116.65,116.65,0,0,1,15,1.81,69.68,69.68,0,0,1,13.54,3.55v20.05h-3.07a51,51,0,0,0-11.48-4.74,66.14,66.14,0,0,0-14-2.36v17.67l5.57,1.12q15.72,3.06,23.14,9.29T-360.7,552.18Zm-47.12-29.3V506.74a20.34,20.34,0,0,0-8.25,2.33q-3.65,2-3.65,5.6a6,6,0,0,0,2.37,5.08Q-415,521.57-407.82,522.88Zm21.86,32a6.42,6.42,0,0,0-3.73-6,23.07,23.07,0,0,0-7.41-2.54V563.6a19.71,19.71,0,0,0,7.87-2.68A6.68,6.68,0,0,0-386,554.9Z" transform="translate(1683.12 -471.35)"/><path class="cls-1" d="M-113.2,552.18q0,11.77-9.88,20.19t-26.24,9.53v25.27h-12.11V582.32a110.74,110.74,0,0,1-18-1.88q-10.23-1.8-16-4.52V555.6h3.13a62.72,62.72,0,0,0,14.72,5.56,98.22,98.22,0,0,0,16.53,2.72V544.81l-6.75-1.53a101.14,101.14,0,0,1-11.79-3.41,31.31,31.31,0,0,1-9.3-5.15,22,22,0,0,1-6-7.9,27.73,27.73,0,0,1-2.16-11.59q0-10.38,9.47-17.75t26.24-8.91V472.35h12.11v16.08a116.73,116.73,0,0,1,15,1.81,69.48,69.48,0,0,1,13.54,3.55v20.05h-3.06a51.24,51.24,0,0,0-11.48-4.74,66.25,66.25,0,0,0-14-2.36v17.67l5.56,1.12q15.73,3.06,23.15,9.29T-113.2,552.18Zm-47.12-29.3V506.74a20.34,20.34,0,0,0-8.25,2.33q-3.65,2-3.65,5.6a6,6,0,0,0,2.36,5.08Q-167.49,521.57-160.32,522.88Zm21.85,32a6.43,6.43,0,0,0-3.72-6,23.07,23.07,0,0,0-7.41-2.54V563.6a19.61,19.61,0,0,0,7.86-2.68A6.68,6.68,0,0,0-138.47,554.9Z" transform="translate(1683.12 -471.35)"/><path class="cls-1" d="M134.3,552.18q0,11.77-9.89,20.19T98.17,581.9v25.27H86.06V582.32a110.63,110.63,0,0,1-18-1.88q-10.23-1.8-16-4.52V555.6h3.13a62.56,62.56,0,0,0,14.72,5.56,97.89,97.89,0,0,0,16.53,2.72V544.81l-6.75-1.53a101.89,101.89,0,0,1-11.8-3.41,31.38,31.38,0,0,1-9.29-5.15,21.85,21.85,0,0,1-6-7.9,27.73,27.73,0,0,1-2.16-11.59q0-10.38,9.46-17.75t26.24-8.91V472.35H98.17v16.08a116.65,116.65,0,0,1,15,1.81,69.68,69.68,0,0,1,13.54,3.55v20.05h-3.06a51.32,51.32,0,0,0-11.49-4.74,66,66,0,0,0-14-2.36v17.67l5.57,1.12q15.74,3.06,23.14,9.29T134.3,552.18Zm-47.12-29.3V506.74a20.25,20.25,0,0,0-8.25,2.33q-3.66,2-3.66,5.6a6,6,0,0,0,2.37,5.08Q80,521.57,87.18,522.88Zm21.85,32a6.43,6.43,0,0,0-3.72-6,23.2,23.2,0,0,0-7.42-2.54V563.6a19.6,19.6,0,0,0,7.87-2.68A6.68,6.68,0,0,0,109,554.9Z" transform="translate(1683.12 -471.35)"/><path class="cls-1" d="M381.79,552.18q0,11.77-9.88,20.19t-26.24,9.53v25.27H333.56V582.32a110.74,110.74,0,0,1-18-1.88q-10.23-1.8-16-4.52V555.6h3.13a62.39,62.39,0,0,0,14.72,5.56,97.89,97.89,0,0,0,16.53,2.72V544.81l-6.75-1.53a101.32,101.32,0,0,1-11.8-3.41,31.13,31.13,0,0,1-9.29-5.15,22,22,0,0,1-6.06-7.9,27.73,27.73,0,0,1-2.16-11.59q0-10.38,9.47-17.75t26.24-8.91V472.35h12.11v16.08a116.65,116.65,0,0,1,15,1.81,69.68,69.68,0,0,1,13.54,3.55v20.05h-3.07a51,51,0,0,0-11.48-4.74,66.14,66.14,0,0,0-14-2.36v17.67l5.57,1.12q15.72,3.06,23.14,9.29T381.79,552.18Zm-47.12-29.3V506.74a20.24,20.24,0,0,0-8.24,2.33q-3.66,2-3.66,5.6a6,6,0,0,0,2.37,5.08Q327.5,521.57,334.67,522.88Zm21.86,32a6.42,6.42,0,0,0-3.73-6,23.07,23.07,0,0,0-7.41-2.54V563.6a19.71,19.71,0,0,0,7.87-2.68A6.68,6.68,0,0,0,356.53,554.9Z" transform="translate(1683.12 -471.35)"/><path class="cls-1" d="M629.29,552.18q0,11.77-9.88,20.19t-26.24,9.53v25.27H581.06V582.32a110.74,110.74,0,0,1-18-1.88q-10.23-1.8-16-4.52V555.6h3.13a62.72,62.72,0,0,0,14.72,5.56,98.22,98.22,0,0,0,16.53,2.72V544.81l-6.75-1.53a101.14,101.14,0,0,1-11.79-3.41,31.31,31.31,0,0,1-9.3-5.15,22.07,22.07,0,0,1-6-7.9,27.73,27.73,0,0,1-2.16-11.59q0-10.38,9.47-17.75t26.24-8.91V472.35h12.11v16.08a117.07,117.07,0,0,1,15,1.81,69.55,69.55,0,0,1,13.53,3.55v20.05h-3.06a51,51,0,0,0-11.48-4.74,66.25,66.25,0,0,0-14-2.36v17.67l5.56,1.12q15.74,3.06,23.15,9.29T629.29,552.18Zm-47.12-29.3V506.74a20.34,20.34,0,0,0-8.25,2.33q-3.64,2-3.65,5.6a6,6,0,0,0,2.36,5.08Q575,521.57,582.17,522.88Zm21.85,32a6.43,6.43,0,0,0-3.72-6,23.07,23.07,0,0,0-7.41-2.54V563.6a19.61,19.61,0,0,0,7.86-2.68A6.68,6.68,0,0,0,604,554.9Z" transform="translate(1683.12 -471.35)"/><path class="cls-1" d="M876.79,552.18q0,11.77-9.89,20.19t-26.24,9.53v25.27H828.55V582.32a110.74,110.74,0,0,1-18-1.88q-10.23-1.8-16-4.52V555.6h3.13a62.72,62.72,0,0,0,14.72,5.56,98.06,98.06,0,0,0,16.53,2.72V544.81l-6.75-1.53a101.89,101.89,0,0,1-11.8-3.41,31.38,31.38,0,0,1-9.29-5.15,21.85,21.85,0,0,1-6-7.9,27.73,27.73,0,0,1-2.16-11.59q0-10.38,9.46-17.75t26.24-8.91V472.35h12.11v16.08a116.65,116.65,0,0,1,15,1.81,69.68,69.68,0,0,1,13.54,3.55v20.05h-3.06a51.32,51.32,0,0,0-11.49-4.74,66,66,0,0,0-14-2.36v17.67l5.57,1.12q15.74,3.06,23.14,9.29T876.79,552.18Zm-47.12-29.3V506.74a20.29,20.29,0,0,0-8.25,2.33c-2.44,1.32-3.65,3.19-3.65,5.6a6,6,0,0,0,2.36,5.08Q822.5,521.57,829.67,522.88Zm21.85,32a6.43,6.43,0,0,0-3.72-6,23.2,23.2,0,0,0-7.42-2.54V563.6a19.6,19.6,0,0,0,7.87-2.68A6.68,6.68,0,0,0,851.52,554.9Z" transform="translate(1683.12 -471.35)"/><path class="cls-1" d="M1124.28,552.18q0,11.77-9.88,20.19t-26.24,9.53v25.27h-12.11V582.32a110.74,110.74,0,0,1-18-1.88q-10.23-1.8-16-4.52V555.6h3.13a62.56,62.56,0,0,0,14.72,5.56,97.89,97.89,0,0,0,16.53,2.72V544.81l-6.75-1.53a101.89,101.89,0,0,1-11.8-3.41,31.26,31.26,0,0,1-9.29-5.15,22,22,0,0,1-6.06-7.9,27.73,27.73,0,0,1-2.15-11.59q0-10.38,9.46-17.75t26.24-8.91V472.35h12.11v16.08a116.65,116.65,0,0,1,15,1.81,69.68,69.68,0,0,1,13.54,3.55v20.05h-3.07a51,51,0,0,0-11.48-4.74,66.14,66.14,0,0,0-14-2.36v17.67l5.57,1.12q15.72,3.06,23.14,9.29T1124.28,552.18Zm-47.12-29.3V506.74a20.34,20.34,0,0,0-8.25,2.33q-3.65,2-3.65,5.6a6,6,0,0,0,2.37,5.08Q1070,521.57,1077.16,522.88Zm21.86,32a6.43,6.43,0,0,0-3.72-6,23.2,23.2,0,0,0-7.42-2.54V563.6a19.71,19.71,0,0,0,7.87-2.68A6.68,6.68,0,0,0,1099,554.9Z" transform="translate(1683.12 -471.35)"/><path class="cls-1" d="M1371.78,552.18q0,11.77-9.88,20.19t-26.24,9.53v25.27h-12.11V582.32a110.74,110.74,0,0,1-18-1.88q-10.23-1.8-16-4.52V555.6h3.13a62.72,62.72,0,0,0,14.72,5.56,98.22,98.22,0,0,0,16.53,2.72V544.81l-6.75-1.53a101.14,101.14,0,0,1-11.79-3.41,31.31,31.31,0,0,1-9.3-5.15,22,22,0,0,1-6-7.9,27.73,27.73,0,0,1-2.16-11.59q0-10.38,9.47-17.75t26.24-8.91V472.35h12.11v16.08a116.73,116.73,0,0,1,15,1.81,69.28,69.28,0,0,1,13.54,3.55v20.05h-3.06a51.24,51.24,0,0,0-11.48-4.74,66.25,66.25,0,0,0-14-2.36v17.67l5.57,1.12q15.72,3.06,23.14,9.29T1371.78,552.18Zm-47.12-29.3V506.74a20.34,20.34,0,0,0-8.25,2.33q-3.65,2-3.65,5.6a6,6,0,0,0,2.37,5.08Q1317.49,521.57,1324.66,522.88Zm21.85,32a6.43,6.43,0,0,0-3.72-6,23.07,23.07,0,0,0-7.41-2.54V563.6a19.61,19.61,0,0,0,7.86-2.68A6.68,6.68,0,0,0,1346.51,554.9Z" transform="translate(1683.12 -471.35)"/><path class="cls-1" d="M1619.28,552.18q0,11.77-9.89,20.19t-26.24,9.53v25.27H1571V582.32a110.74,110.74,0,0,1-18-1.88q-10.23-1.8-16-4.52V555.6h3.13a62.72,62.72,0,0,0,14.72,5.56,98.22,98.22,0,0,0,16.53,2.72V544.81l-6.75-1.53a101.89,101.89,0,0,1-11.8-3.41,31.38,31.38,0,0,1-9.29-5.15,21.85,21.85,0,0,1-6-7.9,27.73,27.73,0,0,1-2.16-11.59q0-10.38,9.46-17.75t26.24-8.91V472.35h12.11v16.08a116.65,116.65,0,0,1,15,1.81,69.68,69.68,0,0,1,13.54,3.55v20.05h-3.06a51.32,51.32,0,0,0-11.49-4.74,66,66,0,0,0-14-2.36v17.67l5.57,1.12q15.73,3.06,23.15,9.29T1619.28,552.18Zm-47.12-29.3V506.74a20.29,20.29,0,0,0-8.25,2.33c-2.44,1.32-3.65,3.19-3.65,5.6a6,6,0,0,0,2.36,5.08Q1565,521.57,1572.16,522.88Zm21.85,32a6.43,6.43,0,0,0-3.72-6,23.15,23.15,0,0,0-7.41-2.54V563.6a19.61,19.61,0,0,0,7.86-2.68A6.68,6.68,0,0,0,1594,554.9Z" transform="translate(1683.12 -471.35)"/><path class="cls-1" d="M1866.77,552.18q0,11.77-9.88,20.19t-26.24,9.53v25.27h-12.11V582.32a110.74,110.74,0,0,1-18-1.88q-10.23-1.8-16-4.52V555.6h3.13a62.56,62.56,0,0,0,14.72,5.56,97.89,97.89,0,0,0,16.53,2.72V544.81l-6.75-1.53a101.89,101.89,0,0,1-11.8-3.41,31.26,31.26,0,0,1-9.29-5.15,22,22,0,0,1-6.06-7.9,27.73,27.73,0,0,1-2.15-11.59q0-10.38,9.46-17.75t26.24-8.91V472.35h12.11v16.08a116.65,116.65,0,0,1,15,1.81,69.68,69.68,0,0,1,13.54,3.55v20.05h-3.07a51,51,0,0,0-11.48-4.74,66.14,66.14,0,0,0-14-2.36v17.67l5.57,1.12q15.72,3.06,23.14,9.29T1866.77,552.18Zm-47.12-29.3V506.74a20.24,20.24,0,0,0-8.24,2.33q-3.66,2-3.66,5.6a6,6,0,0,0,2.37,5.08Q1812.48,521.57,1819.65,522.88Zm21.86,32a6.43,6.43,0,0,0-3.72-6,23.2,23.2,0,0,0-7.42-2.54V563.6a19.71,19.71,0,0,0,7.87-2.68A6.68,6.68,0,0,0,1841.51,554.9Z" transform="translate(1683.12 -471.35)"/><path class="cls-1" d="M2114.27,552.18q0,11.77-9.88,20.19t-26.24,9.53v25.27H2066V582.32a110.74,110.74,0,0,1-18-1.88q-10.23-1.8-16-4.52V555.6h3.13a62.72,62.72,0,0,0,14.72,5.56,98.17,98.17,0,0,0,16.54,2.72V544.81l-6.76-1.53a101.14,101.14,0,0,1-11.79-3.41,31.13,31.13,0,0,1-9.29-5.15,22,22,0,0,1-6.06-7.9,27.73,27.73,0,0,1-2.16-11.59q0-10.38,9.47-17.75t26.24-8.91V472.35h12.11v16.08a116.32,116.32,0,0,1,15,1.81,69.28,69.28,0,0,1,13.54,3.55v20.05h-3.06a51.24,51.24,0,0,0-11.48-4.74,66.25,66.25,0,0,0-14-2.36v17.67l5.57,1.12q15.72,3.06,23.14,9.29T2114.27,552.18Zm-47.12-29.3V506.74a20.34,20.34,0,0,0-8.25,2.33q-3.65,2-3.65,5.6a6,6,0,0,0,2.37,5.08Q2060,521.57,2067.15,522.88Zm21.86,32a6.44,6.44,0,0,0-3.73-6,23.07,23.07,0,0,0-7.41-2.54V563.6a19.61,19.61,0,0,0,7.86-2.68A6.68,6.68,0,0,0,2089,554.9Z" transform="translate(1683.12 -471.35)"/><path class="cls-1" d="M2361.77,552.18q0,11.77-9.89,20.19t-26.24,9.53v25.27h-12.11V582.32a110.74,110.74,0,0,1-18-1.88q-10.23-1.8-16-4.52V555.6h3.13a62.72,62.72,0,0,0,14.72,5.56,98.22,98.22,0,0,0,16.53,2.72V544.81l-6.75-1.53a101.14,101.14,0,0,1-11.79-3.41,31.31,31.31,0,0,1-9.3-5.15,21.85,21.85,0,0,1-6.05-7.9,27.73,27.73,0,0,1-2.16-11.59q0-10.38,9.46-17.75t26.24-8.91V472.35h12.11v16.08a116.65,116.65,0,0,1,15,1.81,69.68,69.68,0,0,1,13.54,3.55v20.05h-3.06a51.32,51.32,0,0,0-11.49-4.74,66,66,0,0,0-14-2.36v17.67l5.57,1.12q15.73,3.06,23.15,9.29T2361.77,552.18Zm-47.12-29.3V506.74a20.34,20.34,0,0,0-8.25,2.33q-3.65,2-3.65,5.6a6,6,0,0,0,2.36,5.08Q2307.48,521.57,2314.65,522.88Zm21.85,32a6.43,6.43,0,0,0-3.72-6,23.15,23.15,0,0,0-7.41-2.54V563.6a19.61,19.61,0,0,0,7.86-2.68A6.68,6.68,0,0,0,2336.5,554.9Z" transform="translate(1683.12 -471.35)"/><path class="cls-1" d="M2609.26,552.18q0,11.77-9.88,20.19t-26.24,9.53v25.27H2561V582.32a110.85,110.85,0,0,1-18-1.88q-10.23-1.8-16-4.52V555.6h3.13a62.56,62.56,0,0,0,14.72,5.56,97.89,97.89,0,0,0,16.53,2.72V544.81l-6.75-1.53a101.89,101.89,0,0,1-11.8-3.41,31.38,31.38,0,0,1-9.29-5.15,22,22,0,0,1-6.06-7.9,27.73,27.73,0,0,1-2.15-11.59q0-10.38,9.46-17.75t26.24-8.91V472.35h12.11v16.08a116.65,116.65,0,0,1,15,1.81,69.68,69.68,0,0,1,13.54,3.55v20.05h-3.07a51,51,0,0,0-11.48-4.74,66,66,0,0,0-14-2.36v17.67l5.57,1.12q15.72,3.06,23.14,9.29T2609.26,552.18Zm-47.12-29.3V506.74a20.24,20.24,0,0,0-8.24,2.33q-3.66,2-3.66,5.6a6,6,0,0,0,2.37,5.08Q2555,521.57,2562.14,522.88Zm21.86,32a6.43,6.43,0,0,0-3.72-6,23.2,23.2,0,0,0-7.42-2.54V563.6a19.66,19.66,0,0,0,7.87-2.68A6.68,6.68,0,0,0,2584,554.9Z" transform="translate(1683.12 -471.35)"/><path class="cls-1" d="M2856.76,552.18q0,11.77-9.88,20.19t-26.24,9.53v25.27h-12.11V582.32a110.74,110.74,0,0,1-18-1.88q-10.23-1.8-16-4.52V555.6h3.14a62.47,62.47,0,0,0,14.71,5.56,98.17,98.17,0,0,0,16.54,2.72V544.81l-6.76-1.53a101.14,101.14,0,0,1-11.79-3.41,31.13,31.13,0,0,1-9.29-5.15,22,22,0,0,1-6.06-7.9,27.73,27.73,0,0,1-2.16-11.59q0-10.38,9.47-17.75t26.24-8.91V472.35h12.11v16.08a116.65,116.65,0,0,1,15,1.81,69.35,69.35,0,0,1,13.53,3.55v20.05h-3.06a51,51,0,0,0-11.48-4.74,66.14,66.14,0,0,0-14-2.36v17.67l5.57,1.12q15.72,3.06,23.14,9.29T2856.76,552.18Zm-47.12-29.3V506.74a20.34,20.34,0,0,0-8.25,2.33q-3.64,2-3.65,5.6a6,6,0,0,0,2.37,5.08Q2802.46,521.57,2809.64,522.88Zm21.86,32a6.44,6.44,0,0,0-3.73-6,23.07,23.07,0,0,0-7.41-2.54V563.6a19.61,19.61,0,0,0,7.86-2.68A6.68,6.68,0,0,0,2831.5,554.9Z" transform="translate(1683.12 -471.35)"/><path class="cls-1" d="M3104.26,552.18q0,11.77-9.89,20.19t-26.24,9.53v25.27H3056V582.32a110.74,110.74,0,0,1-18-1.88q-10.23-1.8-16-4.52V555.6h3.13a62.72,62.72,0,0,0,14.72,5.56,98.22,98.22,0,0,0,16.53,2.72V544.81l-6.75-1.53a101.14,101.14,0,0,1-11.79-3.41,31.31,31.31,0,0,1-9.3-5.15,21.85,21.85,0,0,1-6.05-7.9,27.73,27.73,0,0,1-2.16-11.59q0-10.38,9.47-17.75t26.23-8.91V472.35h12.11v16.08a116.65,116.65,0,0,1,15,1.81,69.68,69.68,0,0,1,13.54,3.55v20.05h-3.06a51.32,51.32,0,0,0-11.49-4.74,66,66,0,0,0-14-2.36v17.67l5.57,1.12q15.74,3.06,23.15,9.29T3104.26,552.18Zm-47.12-29.3V506.74a20.34,20.34,0,0,0-8.25,2.33q-3.64,2-3.65,5.6a6,6,0,0,0,2.36,5.08Q3050,521.57,3057.14,522.88Zm21.85,32a6.43,6.43,0,0,0-3.72-6,23.15,23.15,0,0,0-7.41-2.54V563.6a19.61,19.61,0,0,0,7.86-2.68A6.68,6.68,0,0,0,3079,554.9Z" transform="translate(1683.12 -471.35)"/><path class="cls-1" d="M3351.75,552.18q0,11.77-9.88,20.19t-26.24,9.53v25.27h-12.11V582.32a110.63,110.63,0,0,1-18-1.88q-10.24-1.8-16-4.52V555.6h3.13a62.72,62.72,0,0,0,14.72,5.56,97.89,97.89,0,0,0,16.53,2.72V544.81l-6.75-1.53a101.89,101.89,0,0,1-11.8-3.41,31.38,31.38,0,0,1-9.29-5.15,22,22,0,0,1-6.06-7.9,27.89,27.89,0,0,1-2.15-11.59q0-10.38,9.46-17.75t26.24-8.91V472.35h12.11v16.08a116.65,116.65,0,0,1,15,1.81,69.68,69.68,0,0,1,13.54,3.55v20.05h-3.06a51.32,51.32,0,0,0-11.49-4.74,66,66,0,0,0-14-2.36v17.67l5.57,1.12q15.72,3.06,23.14,9.29T3351.75,552.18Zm-47.11-29.3V506.74a20.25,20.25,0,0,0-8.25,2.33q-3.66,2-3.66,5.6a6,6,0,0,0,2.37,5.08C3296.68,521,3299.85,522,3304.64,522.88Zm21.85,32a6.43,6.43,0,0,0-3.72-6,23.2,23.2,0,0,0-7.42-2.54V563.6a19.6,19.6,0,0,0,7.87-2.68A6.68,6.68,0,0,0,3326.49,554.9Z" transform="translate(1683.12 -471.35)"/><path class="cls-1" d="M3599.25,552.18q0,11.77-9.88,20.19t-26.24,9.53v25.27H3551V582.32a110.74,110.74,0,0,1-18-1.88q-10.23-1.8-16-4.52V555.6h3.14a62.47,62.47,0,0,0,14.71,5.56,98.17,98.17,0,0,0,16.54,2.72V544.81l-6.75-1.53a100.75,100.75,0,0,1-11.8-3.41,31.13,31.13,0,0,1-9.29-5.15,22,22,0,0,1-6.06-7.9,27.73,27.73,0,0,1-2.16-11.59q0-10.38,9.47-17.75t26.24-8.91V472.35h12.11v16.08a116.65,116.65,0,0,1,15,1.81,69.35,69.35,0,0,1,13.53,3.55v20.05h-3.06a51,51,0,0,0-11.48-4.74,66.14,66.14,0,0,0-14-2.36v17.67l5.57,1.12q15.72,3.06,23.14,9.29T3599.25,552.18Zm-47.12-29.3V506.74a20.34,20.34,0,0,0-8.25,2.33q-3.65,2-3.65,5.6a6,6,0,0,0,2.37,5.08Q3545,521.57,3552.13,522.88Zm21.86,32a6.44,6.44,0,0,0-3.73-6,23.07,23.07,0,0,0-7.41-2.54V563.6a19.71,19.71,0,0,0,7.87-2.68A6.7,6.7,0,0,0,3574,554.9Z" transform="translate(1683.12 -471.35)"/></g></svg>